<?xml version="1.0" encoding="UTF-8"?>
<svg width="519px" height="194px" viewBox="0 0 519 194" version="1.1" xmlns="http://www.w3.org/2000/svg" xmlns:xlink="http://www.w3.org/1999/xlink">
    <!-- Generator: Sketch 52.6 (67491) - http://www.bohemiancoding.com/sketch -->
    <title>byline logo design</title>
    <desc>Created with Sketch.</desc>
    <defs>
        <path d="M23.1700624,194 L23.1432797,194 C22.5907263,193.994944 22.0388673,193.676645 21.848,192.989 C13.711,163.636 13.478,143.636 13.526,139.559 C13.532,139.039 13.377,138.54 13.094,138.104 C4.20578306,124.445465 0.556567996,113.003428 0.06,103.532408 L0.06,99.0465757 C1.24542388,77.1399205 19.7236934,67.1087785 23.673,65.209 C24.131,64.989 24.412,64.513 24.417,64.006 C25.014,-7.322 99.715,0.395 109.284,1.676 C109.888,1.757 110.356,2.23 110.444,2.833 C117.736,52.456 81.561,101.442 71.167,114.324 C70.299,115.398 71.407,116.902 72.708,116.441 C79.49,114.04 85.157,109.371 88.069,106.652 C88.935,105.843 90.36,106.469 90.353,107.654 C90.249,124.557 73.026,136.946 63.003,139.333 C54.3,141.405 43.701,153.588 39.157,159.259 C38.375,160.236 36.78,159.707 36.735,158.456 C34.204,88.479 80.396,33.889 80.396,33.889 C23.743,85.468 22.339,161.382 24.511,192.566 C24.5745195,193.476447 23.8764822,193.993541 23.1700624,194 Z" id="path-1"></path>
        <linearGradient x1="0.841004026%" y1="95.1100966%" x2="21.473973%" y2="-5.65234945%" id="linearGradient-3">
            <stop stop-color="#E69437" offset="0%"></stop>
            <stop stop-color="#ECC33D" offset="100%"></stop>
        </linearGradient>
        <path d="M16.105,87.77 L0.705,87.77 C0.429,87.77 0.205,87.546 0.205,87.27 L0.205,0.66 C0.205,0.384 0.429,0.16 0.705,0.16 L16.105,0.16 C16.38,0.16 16.605,0.384 16.605,0.66 L16.605,87.27 C16.605,87.546 16.38,87.77 16.105,87.77" id="path-4"></path>
        <linearGradient x1="-88.7987805%" y1="62.5019975%" x2="1045.34756%" y2="-39.6552905%" id="linearGradient-6">
            <stop stop-color="#E69437" offset="0%"></stop>
            <stop stop-color="#ECC33D" offset="100%"></stop>
        </linearGradient>
        <path d="M16.725,87.77 L1.326,87.77 C1.05,87.77 0.826,87.546 0.826,87.27 L0.826,27.505 C0.826,27.229 1.05,27.005 1.326,27.005 L16.725,27.005 C17.001,27.005 17.225,27.229 17.225,27.505 L17.225,87.27 C17.225,87.546 17.001,87.77 16.725,87.77 Z M16.725,12.459 L1.326,12.459 C1.05,12.459 0.826,12.235 0.826,11.959 L0.826,0.66 C0.826,0.384 1.05,0.16 1.326,0.16 L16.725,0.16 C17.001,0.16 17.225,0.384 17.225,0.66 L17.225,11.959 C17.225,12.235 17.001,12.459 16.725,12.459 Z" id="path-7"></path>
        <linearGradient x1="-275.083847%" y1="79.2797626%" x2="859.131654%" y2="-22.8775254%" id="linearGradient-9">
            <stop stop-color="#E69437" offset="0%"></stop>
            <stop stop-color="#ECC33D" offset="100%"></stop>
        </linearGradient>
        <path d="M15.639,2.464 L16.212,9.312 C16.25,9.769 16.84,9.947 17.11,9.577 C18.982,7.009 21.211,4.972 23.799,3.464 C26.756,1.743 30.07,0.882 33.739,0.882 C39.879,0.882 44.671,2.856 48.116,6.806 C51.561,10.756 53.283,17 53.283,25.536 L53.283,62.27 C53.283,62.546 53.06,62.77 52.783,62.77 L37.328,62.77 C37.052,62.77 36.828,62.546 36.828,62.27 L36.828,25.591 C36.828,21.249 36.07,18.17 34.554,16.353 C33.037,14.538 30.763,13.629 27.731,13.629 C25.296,13.629 23.154,14.088 21.3,15.005 C19.501,15.897 18.011,17.113 16.83,18.655 C16.761,18.746 16.723,18.859 16.723,18.973 L16.723,62.27 C16.723,62.546 16.499,62.77 16.223,62.77 L0.823,62.77 C0.547,62.77 0.323,62.546 0.323,62.27 L0.323,2.505 C0.323,2.229 0.547,2.005 0.823,2.005 L15.14,2.005 C15.4,2.005 15.616,2.204 15.639,2.464" id="path-10"></path>
        <linearGradient x1="-124.745091%" y1="122.862267%" x2="226.463369%" y2="-21.7538133%" id="linearGradient-12">
            <stop stop-color="#E69437" offset="0%"></stop>
            <stop stop-color="#ECC33D" offset="100%"></stop>
        </linearGradient>
        <path d="M28.699,13.517 C25.404,13.517 22.867,14.65 21.089,16.915 C19.311,19.18 18.234,22.185 17.861,25.928 L17.973,26.21 L37.966,26.21 L37.966,24.974 C37.966,21.418 37.236,18.619 35.776,16.578 C34.316,14.538 31.956,13.517 28.699,13.517 Z M29.766,63.95 C20.705,63.95 13.629,61.17 8.537,55.61 C3.445,50.049 0.9,42.889 0.9,34.129 L0.9,31.881 C0.9,22.784 3.37,15.334 8.313,9.53 C13.255,3.727 20.05,0.845 28.699,0.882 C36.861,0.882 43.123,3.381 47.485,8.379 C51.846,13.377 54.028,20.107 54.028,28.568 L54.028,36.548 C54.028,36.825 53.804,37.048 53.528,37.048 L17.804,37.048 L17.636,37.385 C17.897,41.542 19.16,44.911 21.426,47.495 C23.692,50.078 27.051,51.37 31.507,51.37 C35.176,51.37 38.293,50.996 40.858,50.247 C43.272,49.542 45.762,48.489 48.326,47.087 C48.582,46.947 48.905,47.05 49.024,47.318 L53.084,56.572 C53.177,56.782 53.12,57.03 52.939,57.171 C50.536,59.05 47.343,60.635 43.357,61.927 C39.201,63.276 34.67,63.95 29.766,63.95 Z" id="path-13"></path>
        <linearGradient x1="-229.468454%" y1="165.806381%" x2="120.629423%" y2="23.8968537%" id="linearGradient-15">
            <stop stop-color="#E69437" offset="0%"></stop>
            <stop stop-color="#ECC33D" offset="100%"></stop>
        </linearGradient>
    </defs>
    <g id="byline-logo-design" stroke="none" stroke-width="1" fill="none" fill-rule="evenodd">
        <g id="Group-3">
            <mask id="mask-2" fill="white">
                <use xlink:href="#path-1"></use>
            </mask>
            <g id="Clip-2"></g>
            <polygon id="Fill-1" fill="url(#linearGradient-3)" mask="url(#mask-2)" points="0.06 194 475.028 194 475.028 0.806 0.06 0.806"></polygon>
        </g>
        <path d="M181.443293,130.207343 C181.443293,123.865379 180.364478,118.743293 178.207842,114.839081 C176.050213,110.935871 172.628006,108.984266 167.942215,108.984266 C164.929282,108.984266 162.410061,109.65986 160.382565,111.011049 C158.387851,112.340185 156.798437,114.180527 155.614323,116.527064 C155.576575,116.600237 155.556707,116.684435 155.556707,116.766629 L155.556707,142.076349 C155.556707,142.156538 155.575582,142.236727 155.61035,142.307895 C156.758701,144.694526 158.340168,146.54389 160.35475,147.854984 C162.400127,149.188129 164.967031,149.8537 168.053474,149.8537 C172.740258,149.8537 176.143591,148.192781 178.263472,144.871945 C180.383352,141.550107 181.443293,137.056504 181.443293,131.389132 L181.443293,130.207343 Z M195,131.389132 C195,140.28412 192.944689,147.442009 188.835061,152.865807 C184.725432,158.288602 178.933012,161 171.456807,161 C167.663074,161 164.371994,160.212141 161.582573,158.634418 C159.114014,157.241131 157.010028,155.288523 155.269619,152.776596 C155.016306,152.410733 154.459018,152.513977 154.3716,152.95201 L153.071261,159.416263 C153.024572,159.649814 152.820929,159.817209 152.584503,159.817209 L142.496692,159.817209 C142.223511,159.817209 142,159.592679 142,159.316027 L142,72.5011826 C142,72.2245298 142.223511,72 142.496692,72 L155.060015,72 C155.335183,72 155.556707,72.2245298 155.556707,72.5011826 L155.556707,104.375391 C155.556707,104.840489 156.134857,105.053993 156.428898,104.695146 C158.101756,102.653328 160.042828,101.042527 162.252113,99.8657506 C164.854779,98.4774749 167.886586,97.7828359 171.345548,97.7828359 C178.895264,97.7828359 184.725432,100.74683 188.835061,106.675819 C192.944689,112.606814 195,120.450321 195,130.207343 L195,131.389132 Z" id="Fill-4" fill="#142325"></path>
        <path d="M233.247846,135.240109 C233.252849,135.253062 233.256852,135.268008 233.259855,135.282955 L234.603861,141.304207 L234.941113,141.304207 L248.151,99.3487404 C248.21705,99.141489 248.409194,99 248.628358,99 L262.49874,99 C262.846,99 263.08718,99.3417656 262.970092,99.6665924 L238.032427,168.723176 C236.42022,172.93895 234.153523,176.538948 231.231336,179.524166 C228.309149,182.507391 224.168049,184 218.81104,184 C217.687199,184 216.478294,183.888403 215.185326,183.664213 C214.051477,183.467922 212.952655,183.242735 211.889859,182.988653 C211.638671,182.928869 211.47655,182.685747 211.513578,182.430668 L212.898614,172.822371 C212.936643,172.563307 213.165814,172.375983 213.430012,172.396908 C213.862336,172.431782 214.400739,172.475623 215.045221,172.528433 C215.943894,172.603163 216.618399,172.641026 217.067735,172.641026 C219.541587,172.641026 221.517065,171.80106 222.998174,170.122124 C224.477281,168.444184 225.686186,166.504191 226.622887,164.30314 L228.797515,158.997304 C228.84455,158.882718 228.846551,158.754182 228.803519,158.637603 L207.031223,99.6695816 C206.911133,99.3447548 207.152313,99 207.500574,99 L221.310911,99 C221.529074,99 221.722219,99.1404926 221.788268,99.3467476 L233.247846,135.240109" id="Fill-5" fill="#142325"></path>
        <g id="Group-8" transform="translate(278.000000, 72.000000)">
            <mask id="mask-5" fill="white">
                <use xlink:href="#path-4"></use>
            </mask>
            <g id="Clip-7"></g>
            <path d="M16.105,87.77 L0.705,87.77 C0.429,87.77 0.205,87.546 0.205,87.27 L0.205,0.66 C0.205,0.384 0.429,0.16 0.705,0.16 L16.105,0.16 C16.38,0.16 16.605,0.384 16.605,0.66 L16.605,87.27 C16.605,87.546 16.38,87.77 16.105,87.77" id="Fill-6" fill="url(#linearGradient-6)" mask="url(#mask-5)"></path>
        </g>
        <g id="Group-11" transform="translate(315.000000, 72.000000)">
            <mask id="mask-8" fill="white">
                <use xlink:href="#path-7"></use>
            </mask>
            <g id="Clip-10"></g>
            <path d="M16.725,87.77 L1.326,87.77 C1.05,87.77 0.826,87.546 0.826,87.27 L0.826,27.505 C0.826,27.229 1.05,27.005 1.326,27.005 L16.725,27.005 C17.001,27.005 17.225,27.229 17.225,27.505 L17.225,87.27 C17.225,87.546 17.001,87.77 16.725,87.77 Z M16.725,12.459 L1.326,12.459 C1.05,12.459 0.826,12.235 0.826,11.959 L0.826,0.66 C0.826,0.384 1.05,0.16 1.326,0.16 L16.725,0.16 C17.001,0.16 17.225,0.384 17.225,0.66 L17.225,11.959 C17.225,12.235 17.001,12.459 16.725,12.459 Z" id="Fill-9" fill="url(#linearGradient-9)" mask="url(#mask-8)"></path>
        </g>
        <g id="Group-14" transform="translate(352.000000, 97.000000)">
            <mask id="mask-11" fill="white">
                <use xlink:href="#path-10"></use>
            </mask>
            <g id="Clip-13"></g>
            <path d="M15.639,2.464 L16.212,9.312 C16.25,9.769 16.84,9.947 17.11,9.577 C18.982,7.009 21.211,4.972 23.799,3.464 C26.756,1.743 30.07,0.882 33.739,0.882 C39.879,0.882 44.671,2.856 48.116,6.806 C51.561,10.756 53.283,17 53.283,25.536 L53.283,62.27 C53.283,62.546 53.06,62.77 52.783,62.77 L37.328,62.77 C37.052,62.77 36.828,62.546 36.828,62.27 L36.828,25.591 C36.828,21.249 36.07,18.17 34.554,16.353 C33.037,14.538 30.763,13.629 27.731,13.629 C25.296,13.629 23.154,14.088 21.3,15.005 C19.501,15.897 18.011,17.113 16.83,18.655 C16.761,18.746 16.723,18.859 16.723,18.973 L16.723,62.27 C16.723,62.546 16.499,62.77 16.223,62.77 L0.823,62.77 C0.547,62.77 0.323,62.546 0.323,62.27 L0.323,2.505 C0.323,2.229 0.547,2.005 0.823,2.005 L15.14,2.005 C15.4,2.005 15.616,2.204 15.639,2.464" id="Fill-12" fill="url(#linearGradient-12)" mask="url(#mask-11)"></path>
        </g>
        <g id="Group-17" transform="translate(421.000000, 97.000000)">
            <mask id="mask-14" fill="white">
                <use xlink:href="#path-13"></use>
            </mask>
            <g id="Clip-16"></g>
            <path d="M28.699,13.517 C25.404,13.517 22.867,14.65 21.089,16.915 C19.311,19.18 18.234,22.185 17.861,25.928 L17.973,26.21 L37.966,26.21 L37.966,24.974 C37.966,21.418 37.236,18.619 35.776,16.578 C34.316,14.538 31.956,13.517 28.699,13.517 Z M29.766,63.95 C20.705,63.95 13.629,61.17 8.537,55.61 C3.445,50.049 0.9,42.889 0.9,34.129 L0.9,31.881 C0.9,22.784 3.37,15.334 8.313,9.53 C13.255,3.727 20.05,0.845 28.699,0.882 C36.861,0.882 43.123,3.381 47.485,8.379 C51.846,13.377 54.028,20.107 54.028,28.568 L54.028,36.548 C54.028,36.825 53.804,37.048 53.528,37.048 L17.804,37.048 L17.636,37.385 C17.897,41.542 19.16,44.911 21.426,47.495 C23.692,50.078 27.051,51.37 31.507,51.37 C35.176,51.37 38.293,50.996 40.858,50.247 C43.272,49.542 45.762,48.489 48.326,47.087 C48.582,46.947 48.905,47.05 49.024,47.318 L53.084,56.572 C53.177,56.782 53.12,57.03 52.939,57.171 C50.536,59.05 47.343,60.635 43.357,61.927 C39.201,63.276 34.67,63.95 29.766,63.95 Z" id="Fill-15" fill="url(#linearGradient-15)" mask="url(#mask-14)"></path>
        </g>
        <text id="beta" font-family="OpenSans-Bold, Open Sans" font-size="30" font-weight="bold" fill="#413C3C">
            <tspan x="450.074219" y="90">beta</tspan>
        </text>
    </g>
</svg>